<?xml version="1.0" encoding="UTF-8" standalone="no"?>
<!DOCTYPE svg PUBLIC "-//W3C//DTD SVG 1.1//EN"
 "http://www.w3.org/Graphics/SVG/1.1/DTD/svg11.dtd">
<!-- Generated by graphviz version 2.38.0 (20140413.2041)
 -->
<!-- Title: pprof1 Pages: 1 -->
<svg width="100%" height="100%" xmlns="http://www.w3.org/2000/svg" xmlns:xlink="http://www.w3.org/1999/xlink">
<script type="text/ecmascript"><![CDATA[
/** 
 *  SVGPan library 1.2.1
 * ======================
 *
 * Given an unique existing element with id "viewport" (or when missing, the first g 
 * element), including the the library into any SVG adds the following capabilities:
 *
 *  - Mouse panning
 *  - Mouse zooming (using the wheel)
 *  - Object dragging
 *
 * You can configure the behaviour of the pan/zoom/drag with the variables
 * listed in the CONFIGURATION section of this file.
 *
 * Known issues:
 *
 *  - Zooming (while panning) on Safari has still some issues
 *
 * Releases:
 *
 * 1.2.1, Mon Jul  4 00:33:18 CEST 2011, Andrea Leofreddi
 *	- Fixed a regression with mouse wheel (now working on Firefox 5)
 *	- Working with viewBox attribute (#4)
 *	- Added "use strict;" and fixed resulting warnings (#5)
 *	- Added configuration variables, dragging is disabled by default (#3)
 *
 * 1.2, Sat Mar 20 08:42:50 GMT 2010, Zeng Xiaohui
 *	Fixed a bug with browser mouse handler interaction
 *
 * 1.1, Wed Feb  3 17:39:33 GMT 2010, Zeng Xiaohui
 *	Updated the zoom code to support the mouse wheel on Safari/Chrome
 *
 * 1.0, Andrea Leofreddi
 *	First release
 *
 * This code is licensed under the following BSD license:
 *
 * Copyright 2009-2010 Andrea Leofreddi <a.leofreddi@itcharm.com>. All rights reserved.
 * 
 * Redistribution and use in source and binary forms, with or without modification, are
 * permitted provided that the following conditions are met:
 * 
 *    1. Redistributions of source code must retain the above copyright notice, this list of
 *       conditions and the following disclaimer.
 * 
 *    2. Redistributions in binary form must reproduce the above copyright notice, this list
 *       of conditions and the following disclaimer in the documentation and/or other materials
 *       provided with the distribution.
 * 
 * THIS SOFTWARE IS PROVIDED BY Andrea Leofreddi ``AS IS'' AND ANY EXPRESS OR IMPLIED
 * WARRANTIES, INCLUDING, BUT NOT LIMITED TO, THE IMPLIED WARRANTIES OF MERCHANTABILITY AND
 * FITNESS FOR A PARTICULAR PURPOSE ARE DISCLAIMED. IN NO EVENT SHALL Andrea Leofreddi OR
 * CONTRIBUTORS BE LIABLE FOR ANY DIRECT, INDIRECT, INCIDENTAL, SPECIAL, EXEMPLARY, OR
 * CONSEQUENTIAL DAMAGES (INCLUDING, BUT NOT LIMITED TO, PROCUREMENT OF SUBSTITUTE GOODS OR
 * SERVICES; LOSS OF USE, DATA, OR PROFITS; OR BUSINESS INTERRUPTION) HOWEVER CAUSED AND ON
 * ANY THEORY OF LIABILITY, WHETHER IN CONTRACT, STRICT LIABILITY, OR TORT (INCLUDING
 * NEGLIGENCE OR OTHERWISE) ARISING IN ANY WAY OUT OF THE USE OF THIS SOFTWARE, EVEN IF
 * ADVISED OF THE POSSIBILITY OF SUCH DAMAGE.
 * 
 * The views and conclusions contained in the software and documentation are those of the
 * authors and should not be interpreted as representing official policies, either expressed
 * or implied, of Andrea Leofreddi.
 */

"use strict";

/// CONFIGURATION 
/// ====>

var enablePan = 1; // 1 or 0: enable or disable panning (default enabled)
var enableZoom = 1; // 1 or 0: enable or disable zooming (default enabled)
var enableDrag = 0; // 1 or 0: enable or disable dragging (default disabled)

/// <====
/// END OF CONFIGURATION 

var root = document.documentElement;

var state = 'none', svgRoot, stateTarget, stateOrigin, stateTf;

setupHandlers(root);

/**
 * Register handlers
 */
function setupHandlers(root){
	setAttributes(root, {
		"onmouseup" : "handleMouseUp(evt)",
		"onmousedown" : "handleMouseDown(evt)",
		"onmousemove" : "handleMouseMove(evt)",
		//"onmouseout" : "handleMouseUp(evt)", // Decomment this to stop the pan functionality when dragging out of the SVG element
	});

	if(navigator.userAgent.toLowerCase().indexOf('webkit') >= 0)
		window.addEventListener('mousewheel', handleMouseWheel, false); // Chrome/Safari
	else
		window.addEventListener('DOMMouseScroll', handleMouseWheel, false); // Others
}

/**
 * Retrieves the root element for SVG manipulation. The element is then cached into the svgRoot global variable.
 */
function getRoot(root) {
	if(typeof(svgRoot) == "undefined") {
		var g = null;

		g = root.getElementById("viewport");

		if(g == null)
			g = root.getElementsByTagName('g')[0];

		if(g == null)
			alert('Unable to obtain SVG root element');

		setCTM(g, g.getCTM());

		g.removeAttribute("viewBox");

		svgRoot = g;
	}

	return svgRoot;
}

/**
 * Instance an SVGPoint object with given event coordinates.
 */
function getEventPoint(evt) {
	var p = root.createSVGPoint();

	p.x = evt.clientX;
	p.y = evt.clientY;

	return p;
}

/**
 * Sets the current transform matrix of an element.
 */
function setCTM(element, matrix) {
	var s = "matrix(" + matrix.a + "," + matrix.b + "," + matrix.c + "," + matrix.d + "," + matrix.e + "," + matrix.f + ")";

	element.setAttribute("transform", s);
}

/**
 * Dumps a matrix to a string (useful for debug).
 */
function dumpMatrix(matrix) {
	var s = "[ " + matrix.a + ", " + matrix.c + ", " + matrix.e + "\n  " + matrix.b + ", " + matrix.d + ", " + matrix.f + "\n  0, 0, 1 ]";

	return s;
}

/**
 * Sets attributes of an element.
 */
function setAttributes(element, attributes){
	for (var i in attributes)
		element.setAttributeNS(null, i, attributes[i]);
}

/**
 * Handle mouse wheel event.
 */
function handleMouseWheel(evt) {
	if(!enableZoom)
		return;

	if(evt.preventDefault)
		evt.preventDefault();

	evt.returnValue = false;

	var svgDoc = evt.target.ownerDocument;

	var delta;

	if(evt.wheelDelta)
		delta = evt.wheelDelta / 3600; // Chrome/Safari
	else
		delta = evt.detail / -90; // Mozilla

	var z = 1 + delta; // Zoom factor: 0.9/1.1

	var g = getRoot(svgDoc);
	
	var p = getEventPoint(evt);

	p = p.matrixTransform(g.getCTM().inverse());

	// Compute new scale matrix in current mouse position
	var k = root.createSVGMatrix().translate(p.x, p.y).scale(z).translate(-p.x, -p.y);

        setCTM(g, g.getCTM().multiply(k));

	if(typeof(stateTf) == "undefined")
		stateTf = g.getCTM().inverse();

	stateTf = stateTf.multiply(k.inverse());
}

/**
 * Handle mouse move event.
 */
function handleMouseMove(evt) {
	if(evt.preventDefault)
		evt.preventDefault();

	evt.returnValue = false;

	var svgDoc = evt.target.ownerDocument;

	var g = getRoot(svgDoc);

	if(state == 'pan' && enablePan) {
		// Pan mode
		var p = getEventPoint(evt).matrixTransform(stateTf);

		setCTM(g, stateTf.inverse().translate(p.x - stateOrigin.x, p.y - stateOrigin.y));
	} else if(state == 'drag' && enableDrag) {
		// Drag mode
		var p = getEventPoint(evt).matrixTransform(g.getCTM().inverse());

		setCTM(stateTarget, root.createSVGMatrix().translate(p.x - stateOrigin.x, p.y - stateOrigin.y).multiply(g.getCTM().inverse()).multiply(stateTarget.getCTM()));

		stateOrigin = p;
	}
}

/**
 * Handle click event.
 */
function handleMouseDown(evt) {
	if(evt.preventDefault)
		evt.preventDefault();

	evt.returnValue = false;

	var svgDoc = evt.target.ownerDocument;

	var g = getRoot(svgDoc);

	if(
		evt.target.tagName == "svg" 
		|| !enableDrag // Pan anyway when drag is disabled and the user clicked on an element 
	) {
		// Pan mode
		state = 'pan';

		stateTf = g.getCTM().inverse();

		stateOrigin = getEventPoint(evt).matrixTransform(stateTf);
	} else {
		// Drag mode
		state = 'drag';

		stateTarget = evt.target;

		stateTf = g.getCTM().inverse();

		stateOrigin = getEventPoint(evt).matrixTransform(stateTf);
	}
}

/**
 * Handle mouse button release event.
 */
function handleMouseUp(evt) {
	if(evt.preventDefault)
		evt.preventDefault();

	evt.returnValue = false;

	var svgDoc = evt.target.ownerDocument;

	if(state == 'pan' || state == 'drag') {
		// Quit pan mode
		state = '';
	}
}

]]></script><g id="viewport" transform="scale(0.5,0.5) translate(0,0)"><g id="graph0" class="graph" transform="scale(1 1) rotate(0) translate(4 1782)">
<title>pprof1</title>
<polygon fill="white" stroke="none" points="-4,4 -4,-1782 1074,-1782 1074,4 -4,4"/>
<g id="clust1" class="cluster"><title>cluster_L</title>
<polygon fill="none" stroke="black" points="8,-1656 8,-1770 468,-1770 468,-1656 8,-1656"/>
</g>
<!-- File: pprof1 -->
<g id="node1" class="node"><title>File: pprof1</title>
<g id="a_node1"><a xlink:title="pprof1">
<polygon fill="#f8f8f8" stroke="black" points="459.5,-1762 16.5,-1762 16.5,-1664 459.5,-1664 459.5,-1762"/>
<text text-anchor="start" x="24.5" y="-1745.2" font-family="Times,serif" font-size="16.00">File: pprof1</text>
<text text-anchor="start" x="24.5" y="-1727.2" font-family="Times,serif" font-size="16.00">Type: alloc_objects</text>
<text text-anchor="start" x="24.5" y="-1709.2" font-family="Times,serif" font-size="16.00">Time: Jul 16, 2018 at 11:09pm (MSK)</text>
<text text-anchor="start" x="24.5" y="-1691.2" font-family="Times,serif" font-size="16.00">Showing nodes accounting for 7578222, 99.52% of 7614412 total</text>
<text text-anchor="start" x="24.5" y="-1673.2" font-family="Times,serif" font-size="16.00">Dropped 34 nodes (cum &lt;= 38072)</text>
</a>
</g>
</g>
<!-- N1 -->
<g id="node1" class="node"><title>N1</title>
<g id="a_node1"><a xlink:title="net/http.(*conn).serve (7614408)">
<polygon fill="#edd5d5" stroke="#b20000" points="562,-1735 478,-1735 478,-1691 562,-1691 562,-1735"/>
<text text-anchor="middle" x="520" y="-1724.6" font-family="Times,serif" font-size="8.00">net/http</text>
<text text-anchor="middle" x="520" y="-1715.6" font-family="Times,serif" font-size="8.00">(*conn)</text>
<text text-anchor="middle" x="520" y="-1706.6" font-family="Times,serif" font-size="8.00">serve</text>
<text text-anchor="middle" x="520" y="-1697.6" font-family="Times,serif" font-size="8.00">0 of 7614408 (100%)</text>
</a>
</g>
</g>
<!-- N12 -->
<g id="node12" class="node"><title>N12</title>
<g id="a_node12"><a xlink:title="net/http.serverHandler.ServeHTTP (7605562)">
<polygon fill="#edd5d5" stroke="#b20000" points="565,-1613 475,-1613 475,-1569 565,-1569 565,-1613"/>
<text text-anchor="middle" x="520" y="-1602.6" font-family="Times,serif" font-size="8.00">net/http</text>
<text text-anchor="middle" x="520" y="-1593.6" font-family="Times,serif" font-size="8.00">serverHandler</text>
<text text-anchor="middle" x="520" y="-1584.6" font-family="Times,serif" font-size="8.00">ServeHTTP</text>
<text text-anchor="middle" x="520" y="-1575.6" font-family="Times,serif" font-size="8.00">0 of 7605562 (99.88%)</text>
</a>
</g>
</g>
<!-- N1&#45;&gt;N12 -->
<g id="edge12" class="edge"><title>N1&#45;&gt;N12</title>
<g id="a_edge12"><a xlink:title="net/http.(*conn).serve &#45;&gt; net/http.serverHandler.ServeHTTP (7605562)">
<path fill="none" stroke="#b20000" stroke-width="5" d="M520,-1690.82C520,-1672.17 520,-1644.75 520,-1623.53"/>
<polygon fill="#b20000" stroke="#b20000" stroke-width="5" points="524.375,-1623.37 520,-1613.37 515.625,-1623.37 524.375,-1623.37"/>
</a>
</g>
<g id="a_edge12&#45;label"><a xlink:title="net/http.(*conn).serve &#45;&gt; net/http.serverHandler.ServeHTTP (7605562)">
<text text-anchor="middle" x="546" y="-1634.8" font-family="Times,serif" font-size="14.00"> 7605562</text>
</a>
</g>
</g>
<!-- N2 -->
<g id="node2" class="node"><title>N2</title>
<g id="a_node2"><a xlink:title="fmt.(*pp).printValue (5771393)">
<polygon fill="#edd7d5" stroke="#b20e00" points="776.5,-718 667.5,-718 667.5,-650 776.5,-650 776.5,-718"/>
<text text-anchor="middle" x="722" y="-705.2" font-family="Times,serif" font-size="11.00">fmt</text>
<text text-anchor="middle" x="722" y="-693.2" font-family="Times,serif" font-size="11.00">(*pp)</text>
<text text-anchor="middle" x="722" y="-681.2" font-family="Times,serif" font-size="11.00">printValue</text>
<text text-anchor="middle" x="722" y="-669.2" font-family="Times,serif" font-size="11.00">77826 (1.02%)</text>
<text text-anchor="middle" x="722" y="-657.2" font-family="Times,serif" font-size="11.00">of 5771393 (75.80%)</text>
</a>
</g>
</g>
<!-- NN2_0 -->
<g id="NN2_0" class="node"><title>NN2_0</title>
<g id="a_NN2_0"><a xlink:title="65537">
<polygon fill="#f8f8f8" stroke="black" points="749,-599 699,-599 695,-595 695,-563 745,-563 749,-567 749,-599"/>
<polyline fill="none" stroke="black" points="745,-595 695,-595 "/>
<polyline fill="none" stroke="black" points="745,-595 745,-563 "/>
<polyline fill="none" stroke="black" points="745,-595 749,-599 "/>
<text text-anchor="middle" x="722" y="-579.1" font-family="Times,serif" font-size="8.00">16B</text>
</a>
</g>
</g>
<!-- N2&#45;&gt;NN2_0 -->
<g id="edge1" class="edge"><title>N2&#45;&gt;NN2_0</title>
<g id="a_edge1"><a xlink:title="65537">
<path fill="none" stroke="black" d="M722,-649.929C722,-636.847 722,-621.986 722,-609.507"/>
<polygon fill="black" stroke="black" points="725.5,-609.258 722,-599.259 718.5,-609.259 725.5,-609.258"/>
</a>
</g>
<g id="a_edge1&#45;label"><a xlink:title="65537">
<text text-anchor="middle" x="741" y="-620.8" font-family="Times,serif" font-size="14.00"> 65537</text>
</a>
</g>
</g>
<!-- N7 -->
<g id="node7" class="node"><title>N7</title>
<g id="a_node7"><a xlink:title="fmt.(*fmt).pad (40961)">
<polygon fill="#ededec" stroke="#b2b1ad" points="795.5,-526 718.5,-526 718.5,-474 795.5,-474 795.5,-526"/>
<text text-anchor="middle" x="757" y="-514" font-family="Times,serif" font-size="10.00">fmt</text>
<text text-anchor="middle" x="757" y="-503" font-family="Times,serif" font-size="10.00">(*fmt)</text>
<text text-anchor="middle" x="757" y="-492" font-family="Times,serif" font-size="10.00">pad</text>
<text text-anchor="middle" x="757" y="-481" font-family="Times,serif" font-size="10.00">40961 (0.54%)</text>
</a>
</g>
</g>
<!-- N2&#45;&gt;N7 -->
<g id="edge25" class="edge"><title>N2&#45;&gt;N7</title>
<g id="a_edge25"><a xlink:title="fmt.(*pp).printValue ... fmt.(*fmt).pad (40961)">
<path fill="none" stroke="#b2b1ad" stroke-dasharray="1,5" d="M754.478,-649.905C758.369,-644.304 761.753,-638.262 764,-632 775.116,-601.015 771.449,-563.26 766.148,-536.256"/>
<polygon fill="#b2b1ad" stroke="#b2b1ad" points="769.57,-535.521 764.064,-526.47 762.724,-536.979 769.57,-535.521"/>
</a>
</g>
<g id="a_edge25&#45;label"><a xlink:title="fmt.(*pp).printValue ... fmt.(*fmt).pad (40961)">
<text text-anchor="middle" x="791" y="-577.3" font-family="Times,serif" font-size="14.00"> 40961</text>
</a>
</g>
</g>
<!-- N13 -->
<g id="node13" class="node"><title>N13</title>
<g id="a_node13"><a xlink:title="reflect.(*rtype).Field (2785322)">
<polygon fill="#eddbd5" stroke="#b22e00" points="904,-522 814,-522 814,-478 904,-478 904,-522"/>
<text text-anchor="middle" x="859" y="-511.6" font-family="Times,serif" font-size="8.00">reflect</text>
<text text-anchor="middle" x="859" y="-502.6" font-family="Times,serif" font-size="8.00">(*rtype)</text>
<text text-anchor="middle" x="859" y="-493.6" font-family="Times,serif" font-size="8.00">Field</text>
<text text-anchor="middle" x="859" y="-484.6" font-family="Times,serif" font-size="8.00">0 of 2785322 (36.58%)</text>
</a>
</g>
</g>
<!-- N2&#45;&gt;N13 -->
<g id="edge23" class="edge"><title>N2&#45;&gt;N13</title>
<g id="a_edge23"><a xlink:title="fmt.(*pp).printValue &#45;&gt; reflect.(*rtype).Field (2785322)">
<path fill="none" stroke="#b22e00" stroke-width="2" d="M765.642,-649.961C782.376,-635.672 800.64,-617.897 814,-599 828.701,-578.206 840.483,-551.843 848.299,-531.699"/>
<polygon fill="#b22e00" stroke="#b22e00" stroke-width="2" points="851.673,-532.67 851.915,-522.078 845.121,-530.207 851.673,-532.67"/>
</a>
</g>
<g id="a_edge23&#45;label"><a xlink:title="fmt.(*pp).printValue &#45;&gt; reflect.(*rtype).Field (2785322)">
<text text-anchor="middle" x="861" y="-577.3" font-family="Times,serif" font-size="14.00"> 2785322</text>
</a>
</g>
</g>
<!-- N14 -->
<g id="node14" class="node"><title>N14</title>
<g id="a_node14"><a xlink:title="reflect.Value.Interface (2867284)">
<polygon fill="#eddbd5" stroke="#b22d00" points="1012,-522 922,-522 922,-478 1012,-478 1012,-522"/>
<text text-anchor="middle" x="967" y="-511.6" font-family="Times,serif" font-size="8.00">reflect</text>
<text text-anchor="middle" x="967" y="-502.6" font-family="Times,serif" font-size="8.00">Value</text>
<text text-anchor="middle" x="967" y="-493.6" font-family="Times,serif" font-size="8.00">Interface</text>
<text text-anchor="middle" x="967" y="-484.6" font-family="Times,serif" font-size="8.00">0 of 2867284 (37.66%)</text>
</a>
</g>
</g>
<!-- N2&#45;&gt;N14 -->
<g id="edge19" class="edge"><title>N2&#45;&gt;N14</title>
<g id="a_edge19"><a xlink:title="fmt.(*pp).printValue &#45;&gt; reflect.Value.Interface (2867284)">
<path fill="none" stroke="#b22d00" stroke-width="2" d="M776.641,-663.226C811.654,-648.853 856.78,-627.026 891,-599 914.466,-579.782 935.12,-552.038 948.951,-530.972"/>
<polygon fill="#b22d00" stroke="#b22d00" stroke-width="2" points="951.998,-532.704 954.449,-522.397 946.105,-528.926 951.998,-532.704"/>
</a>
</g>
<g id="a_edge19&#45;label"><a xlink:title="fmt.(*pp).printValue &#45;&gt; reflect.Value.Interface (2867284)">
<text text-anchor="middle" x="952" y="-577.3" font-family="Times,serif" font-size="14.00"> 2867284</text>
</a>
</g>
</g>
<!-- N3 -->
<g id="node3" class="node"><title>N3</title>
<g id="a_node3"><a xlink:title="main.handle (7605536)">
<polygon fill="#edd5d5" stroke="#b20000" points="610.5,-1328 429.5,-1328 429.5,-1236 610.5,-1236 610.5,-1328"/>
<text text-anchor="middle" x="520" y="-1308.8" font-family="Times,serif" font-size="19.00">main</text>
<text text-anchor="middle" x="520" y="-1287.8" font-family="Times,serif" font-size="19.00">handle</text>
<text text-anchor="middle" x="520" y="-1266.8" font-family="Times,serif" font-size="19.00">1221030 (16.04%)</text>
<text text-anchor="middle" x="520" y="-1245.8" font-family="Times,serif" font-size="19.00">of 7605536 (99.88%)</text>
</a>
</g>
</g>
<!-- NN3_0 -->
<g id="NN3_0" class="node"><title>NN3_0</title>
<g id="a_NN3_0"><a xlink:title="656829">
<polygon fill="#f8f8f8" stroke="black" points="399,-1185 349,-1185 345,-1181 345,-1149 395,-1149 399,-1153 399,-1185"/>
<polyline fill="none" stroke="black" points="395,-1181 345,-1181 "/>
<polyline fill="none" stroke="black" points="395,-1181 395,-1149 "/>
<polyline fill="none" stroke="black" points="395,-1181 399,-1185 "/>
<text text-anchor="middle" x="372" y="-1165.1" font-family="Times,serif" font-size="8.00">16B..40kB</text>
</a>
</g>
</g>
<!-- N3&#45;&gt;NN3_0 -->
<g id="edge2" class="edge"><title>N3&#45;&gt;NN3_0</title>
<g id="a_edge2"><a xlink:title="656829">
<path fill="none" stroke="black" d="M437.638,-1235.87C429.378,-1230.23 421.342,-1224.24 414,-1218 405.357,-1210.66 397.056,-1201.42 390.149,-1192.89"/>
<polygon fill="black" stroke="black" points="392.906,-1190.73 383.989,-1185.01 387.391,-1195.04 392.906,-1190.73"/>
</a>
</g>
<g id="a_edge2&#45;label"><a xlink:title="656829">
<text text-anchor="middle" x="436.5" y="-1206.8" font-family="Times,serif" font-size="14.00"> 656829</text>
</a>
</g>
</g>
<!-- NN3_1 -->
<g id="NN3_1" class="node"><title>NN3_1</title>
<g id="a_NN3_1"><a xlink:title="245905">
<polygon fill="#f8f8f8" stroke="black" points="471,-1185 421,-1185 417,-1181 417,-1149 467,-1149 471,-1153 471,-1185"/>
<polyline fill="none" stroke="black" points="467,-1181 417,-1181 "/>
<polyline fill="none" stroke="black" points="467,-1181 467,-1149 "/>
<polyline fill="none" stroke="black" points="467,-1181 471,-1185 "/>
<text text-anchor="middle" x="444" y="-1165.1" font-family="Times,serif" font-size="8.00">48kB..88kB</text>
</a>
</g>
</g>
<!-- N3&#45;&gt;NN3_1 -->
<g id="edge3" class="edge"><title>N3&#45;&gt;NN3_1</title>
<g id="a_edge3"><a xlink:title="245905">
<path fill="none" stroke="black" d="M483.488,-1235.89C479.129,-1229.98 474.861,-1223.92 471,-1218 466.095,-1210.48 461.265,-1201.99 457.077,-1194.17"/>
<polygon fill="black" stroke="black" points="460.057,-1192.31 452.325,-1185.07 453.852,-1195.55 460.057,-1192.31"/>
</a>
</g>
<g id="a_edge3&#45;label"><a xlink:title="245905">
<text text-anchor="middle" x="493.5" y="-1206.8" font-family="Times,serif" font-size="14.00"> 245905</text>
</a>
</g>
</g>
<!-- NN3_2 -->
<g id="NN3_2" class="node"><title>NN3_2</title>
<g id="a_NN3_2"><a xlink:title="81792">
<polygon fill="#f8f8f8" stroke="black" points="551,-1185 493,-1185 489,-1181 489,-1149 547,-1149 551,-1153 551,-1185"/>
<polyline fill="none" stroke="black" points="547,-1181 489,-1181 "/>
<polyline fill="none" stroke="black" points="547,-1181 547,-1149 "/>
<polyline fill="none" stroke="black" points="547,-1181 551,-1185 "/>
<text text-anchor="middle" x="520" y="-1165.1" font-family="Times,serif" font-size="8.00">104kB..112kB</text>
</a>
</g>
</g>
<!-- N3&#45;&gt;NN3_2 -->
<g id="edge4" class="edge"><title>N3&#45;&gt;NN3_2</title>
<g id="a_edge4"><a xlink:title="81792">
<path fill="none" stroke="black" d="M520,-1235.69C520,-1222.06 520,-1207.52 520,-1195.42"/>
<polygon fill="black" stroke="black" points="523.5,-1195.1 520,-1185.1 516.5,-1195.1 523.5,-1195.1"/>
</a>
</g>
<g id="a_edge4&#45;label"><a xlink:title="81792">
<text text-anchor="middle" x="539" y="-1206.8" font-family="Times,serif" font-size="14.00"> 81792</text>
</a>
</g>
</g>
<!-- NN3_3 -->
<g id="NN3_3" class="node"><title>NN3_3</title>
<g id="a_NN3_3"><a xlink:title="41901">
<polygon fill="#f8f8f8" stroke="black" points="623,-1185 573,-1185 569,-1181 569,-1149 619,-1149 623,-1153 623,-1185"/>
<polyline fill="none" stroke="black" points="619,-1181 569,-1181 "/>
<polyline fill="none" stroke="black" points="619,-1181 619,-1149 "/>
<polyline fill="none" stroke="black" points="619,-1181 623,-1185 "/>
<text text-anchor="middle" x="596" y="-1165.1" font-family="Times,serif" font-size="8.00">96kB</text>
</a>
</g>
</g>
<!-- N3&#45;&gt;NN3_3 -->
<g id="edge5" class="edge"><title>N3&#45;&gt;NN3_3</title>
<g id="a_edge5"><a xlink:title="41901">
<path fill="none" stroke="black" d="M550.474,-1235.69C560.111,-1221.36 570.421,-1206.03 578.788,-1193.59"/>
<polygon fill="black" stroke="black" points="581.823,-1195.35 584.5,-1185.1 576.015,-1191.44 581.823,-1195.35"/>
</a>
</g>
<g id="a_edge5&#45;label"><a xlink:title="41901">
<text text-anchor="middle" x="591" y="-1206.8" font-family="Times,serif" font-size="14.00"> 41901</text>
</a>
</g>
</g>
<!-- N6 -->
<g id="node6" class="node"><title>N6</title>
<g id="a_node6"><a xlink:title="fmt.Sprintf (6384506)">
<polygon fill="#edd6d5" stroke="#b20900" points="737,-1112 581,-1112 581,-1032 737,-1032 737,-1112"/>
<text text-anchor="middle" x="659" y="-1095.2" font-family="Times,serif" font-size="16.00">fmt</text>
<text text-anchor="middle" x="659" y="-1077.2" font-family="Times,serif" font-size="16.00">Sprintf</text>
<text text-anchor="middle" x="659" y="-1059.2" font-family="Times,serif" font-size="16.00">585799 (7.69%)</text>
<text text-anchor="middle" x="659" y="-1041.2" font-family="Times,serif" font-size="16.00">of 6384506 (83.85%)</text>
</a>
</g>
</g>
<!-- N3&#45;&gt;N6 -->
<g id="edge15" class="edge"><title>N3&#45;&gt;N6</title>
<g id="a_edge15"><a xlink:title="main.handle &#45;&gt; fmt.Sprintf (6384506)">
<path fill="none" stroke="#b20900" stroke-width="5" d="M595.107,-1235.69C601.871,-1230.16 608.305,-1224.24 614,-1218 637.868,-1191.85 649.078,-1153.23 654.342,-1122.41"/>
<polygon fill="#b20900" stroke="#b20900" stroke-width="5" points="658.702,-1122.85 655.909,-1112.29 650.055,-1121.51 658.702,-1122.85"/>
</a>
</g>
<g id="a_edge15&#45;label"><a xlink:title="main.handle &#45;&gt; fmt.Sprintf (6384506)">
<text text-anchor="middle" x="675" y="-1163.3" font-family="Times,serif" font-size="14.00"> 6384506</text>
</a>
</g>
</g>
<!-- N4 -->
<g id="node4" class="node"><title>N4</title>
<g id="a_node4"><a xlink:title="reflect.unsafe_New (2867284)">
<polygon fill="#eddbd5" stroke="#b22d00" points="1065.5,-173 868.5,-173 868.5,-87 1065.5,-87 1065.5,-173"/>
<text text-anchor="middle" x="967" y="-149.8" font-family="Times,serif" font-size="24.00">reflect</text>
<text text-anchor="middle" x="967" y="-123.8" font-family="Times,serif" font-size="24.00">unsafe_New</text>
<text text-anchor="middle" x="967" y="-97.8" font-family="Times,serif" font-size="24.00">2867284 (37.66%)</text>
</a>
</g>
</g>
<!-- NN4_0 -->
<g id="NN4_0" class="node"><title>NN4_0</title>
<g id="a_NN4_0"><a xlink:title="1736730">
<polygon fill="#f8f8f8" stroke="black" points="919,-36 869,-36 865,-32 865,-0 915,-0 919,-4 919,-36"/>
<polyline fill="none" stroke="black" points="915,-32 865,-32 "/>
<polyline fill="none" stroke="black" points="915,-32 915,-0 "/>
<polyline fill="none" stroke="black" points="915,-32 919,-36 "/>
<text text-anchor="middle" x="892" y="-16.1" font-family="Times,serif" font-size="8.00">16B</text>
</a>
</g>
</g>
<!-- N4&#45;&gt;NN4_0 -->
<g id="edge6" class="edge"><title>N4&#45;&gt;NN4_0</title>
<g id="a_edge6"><a xlink:title="1736730">
<path fill="none" stroke="black" d="M923.891,-86.7198C919.198,-81.0213 914.766,-75.0474 911,-69 906.631,-61.9847 903.003,-53.804 900.129,-46.1161"/>
<polygon fill="black" stroke="black" points="903.358,-44.7437 896.787,-36.433 896.741,-47.0277 903.358,-44.7437"/>
</a>
</g>
<g id="a_edge6&#45;label"><a xlink:title="1736730">
<text text-anchor="middle" x="937" y="-57.8" font-family="Times,serif" font-size="14.00"> 1736730</text>
</a>
</g>
</g>
<!-- NN4_1 -->
<g id="NN4_1" class="node"><title>NN4_1</title>
<g id="a_NN4_1"><a xlink:title="606226">
<polygon fill="#f8f8f8" stroke="black" points="994,-36 944,-36 940,-32 940,-0 990,-0 994,-4 994,-36"/>
<polyline fill="none" stroke="black" points="990,-32 940,-32 "/>
<polyline fill="none" stroke="black" points="990,-32 990,-0 "/>
<polyline fill="none" stroke="black" points="990,-32 994,-36 "/>
<text text-anchor="middle" x="967" y="-16.1" font-family="Times,serif" font-size="8.00">32B</text>
</a>
</g>
</g>
<!-- N4&#45;&gt;NN4_1 -->
<g id="edge7" class="edge"><title>N4&#45;&gt;NN4_1</title>
<g id="a_edge7"><a xlink:title="606226">
<path fill="none" stroke="black" d="M967,-86.7857C967,-73.1962 967,-58.5043 967,-46.2838"/>
<polygon fill="black" stroke="black" points="970.5,-46.2706 967,-36.2707 963.5,-46.2707 970.5,-46.2706"/>
</a>
</g>
<g id="a_edge7&#45;label"><a xlink:title="606226">
<text text-anchor="middle" x="989.5" y="-57.8" font-family="Times,serif" font-size="14.00"> 606226</text>
</a>
</g>
</g>
<!-- NN4_2 -->
<g id="NN4_2" class="node"><title>NN4_2</title>
<g id="a_NN4_2"><a xlink:title="524328">
<polygon fill="#f8f8f8" stroke="black" points="1066,-36 1016,-36 1012,-32 1012,-0 1062,-0 1066,-4 1066,-36"/>
<polyline fill="none" stroke="black" points="1062,-32 1012,-32 "/>
<polyline fill="none" stroke="black" points="1062,-32 1062,-0 "/>
<polyline fill="none" stroke="black" points="1062,-32 1066,-36 "/>
<text text-anchor="middle" x="1039" y="-16.1" font-family="Times,serif" font-size="8.00">80B</text>
</a>
</g>
</g>
<!-- N4&#45;&gt;NN4_2 -->
<g id="edge8" class="edge"><title>N4&#45;&gt;NN4_2</title>
<g id="a_edge8"><a xlink:title="524328">
<path fill="none" stroke="black" d="M1003.7,-86.7231C1008.08,-80.9309 1012.3,-74.9327 1016,-69 1020.55,-61.7049 1024.75,-53.3593 1028.27,-45.6036"/>
<polygon fill="black" stroke="black" points="1031.58,-46.7846 1032.36,-36.2185 1025.16,-43.9914 1031.58,-46.7846"/>
</a>
</g>
<g id="a_edge8&#45;label"><a xlink:title="524328">
<text text-anchor="middle" x="1047.5" y="-57.8" font-family="Times,serif" font-size="14.00"> 524328</text>
</a>
</g>
</g>
<!-- N5 -->
<g id="node5" class="node"><title>N5</title>
<g id="a_node5"><a xlink:title="reflect.(*structType).Field (2785322)">
<polygon fill="#eddbd5" stroke="#b22e00" points="903.5,-423 706.5,-423 706.5,-311 903.5,-311 903.5,-423"/>
<text text-anchor="middle" x="805" y="-399.8" font-family="Times,serif" font-size="24.00">reflect</text>
<text text-anchor="middle" x="805" y="-373.8" font-family="Times,serif" font-size="24.00">(*structType)</text>
<text text-anchor="middle" x="805" y="-347.8" font-family="Times,serif" font-size="24.00">Field</text>
<text text-anchor="middle" x="805" y="-321.8" font-family="Times,serif" font-size="24.00">2785322 (36.58%)</text>
</a>
</g>
</g>
<!-- NN5_0 -->
<g id="NN5_0" class="node"><title>NN5_0</title>
<g id="a_NN5_0"><a xlink:title="2785322">
<polygon fill="#f8f8f8" stroke="black" points="832,-260 782,-260 778,-256 778,-224 828,-224 832,-228 832,-260"/>
<polyline fill="none" stroke="black" points="828,-256 778,-256 "/>
<polyline fill="none" stroke="black" points="828,-256 828,-224 "/>
<polyline fill="none" stroke="black" points="828,-256 832,-260 "/>
<text text-anchor="middle" x="805" y="-240.1" font-family="Times,serif" font-size="8.00">16B</text>
</a>
</g>
</g>
<!-- N5&#45;&gt;NN5_0 -->
<g id="edge9" class="edge"><title>N5&#45;&gt;NN5_0</title>
<g id="a_edge9"><a xlink:title="2785322">
<path fill="none" stroke="black" d="M805,-310.976C805,-296.872 805,-282.308 805,-270.297"/>
<polygon fill="black" stroke="black" points="808.5,-270.07 805,-260.07 801.5,-270.07 808.5,-270.07"/>
</a>
</g>
<g id="a_edge9&#45;label"><a xlink:title="2785322">
<text text-anchor="middle" x="831" y="-281.8" font-family="Times,serif" font-size="14.00"> 2785322</text>
</a>
</g>
</g>
<!-- NN6_0 -->
<g id="NN6_0" class="node"><title>NN6_0</title>
<g id="a_NN6_0"><a xlink:title="585799">
<polygon fill="#f8f8f8" stroke="black" points="686,-981 636,-981 632,-977 632,-945 682,-945 686,-949 686,-981"/>
<polyline fill="none" stroke="black" points="682,-977 632,-977 "/>
<polyline fill="none" stroke="black" points="682,-977 682,-945 "/>
<polyline fill="none" stroke="black" points="682,-977 686,-981 "/>
<text text-anchor="middle" x="659" y="-961.1" font-family="Times,serif" font-size="8.00">128B</text>
</a>
</g>
</g>
<!-- N6&#45;&gt;NN6_0 -->
<g id="edge10" class="edge"><title>N6&#45;&gt;NN6_0</title>
<g id="a_edge10"><a xlink:title="585799">
<path fill="none" stroke="black" d="M659,-1031.76C659,-1018.29 659,-1003.52 659,-991.219"/>
<polygon fill="black" stroke="black" points="662.5,-991.136 659,-981.136 655.5,-991.136 662.5,-991.136"/>
</a>
</g>
<g id="a_edge10&#45;label"><a xlink:title="585799">
<text text-anchor="middle" x="681.5" y="-1002.8" font-family="Times,serif" font-size="14.00"> 585799</text>
</a>
</g>
</g>
<!-- N8 -->
<g id="node8" class="node"><title>N8</title>
<g id="a_node8"><a xlink:title="fmt.(*pp).doPrintf (5771393)">
<polygon fill="#edd7d5" stroke="#b20e00" points="767,-908 677,-908 677,-864 767,-864 767,-908"/>
<text text-anchor="middle" x="722" y="-897.6" font-family="Times,serif" font-size="8.00">fmt</text>
<text text-anchor="middle" x="722" y="-888.6" font-family="Times,serif" font-size="8.00">(*pp)</text>
<text text-anchor="middle" x="722" y="-879.6" font-family="Times,serif" font-size="8.00">doPrintf</text>
<text text-anchor="middle" x="722" y="-870.6" font-family="Times,serif" font-size="8.00">0 of 5771393 (75.80%)</text>
</a>
</g>
</g>
<!-- N6&#45;&gt;N8 -->
<g id="edge18" class="edge"><title>N6&#45;&gt;N8</title>
<g id="a_edge18"><a xlink:title="fmt.Sprintf &#45;&gt; fmt.(*pp).doPrintf (5771393)">
<path fill="none" stroke="#b20e00" stroke-width="4" d="M697.604,-1031.96C701.668,-1026.27 705.296,-1020.22 708,-1014 721.287,-983.424 723.798,-944.977 723.606,-918.439"/>
<polygon fill="#b20e00" stroke="#b20e00" stroke-width="4" points="727.101,-918.125 723.395,-908.2 720.102,-918.27 727.101,-918.125"/>
</a>
</g>
<g id="a_edge18&#45;label"><a xlink:title="fmt.Sprintf &#45;&gt; fmt.(*pp).doPrintf (5771393)">
<text text-anchor="middle" x="749" y="-959.3" font-family="Times,serif" font-size="14.00"> 5771393</text>
</a>
</g>
</g>
<!-- N9 -->
<g id="node9" class="node"><title>N9</title>
<g id="a_node9"><a xlink:title="fmt.(*pp).printArg (5771393)">
<polygon fill="#edd7d5" stroke="#b20e00" points="767,-813 677,-813 677,-769 767,-769 767,-813"/>
<text text-anchor="middle" x="722" y="-802.6" font-family="Times,serif" font-size="8.00">fmt</text>
<text text-anchor="middle" x="722" y="-793.6" font-family="Times,serif" font-size="8.00">(*pp)</text>
<text text-anchor="middle" x="722" y="-784.6" font-family="Times,serif" font-size="8.00">printArg</text>
<text text-anchor="middle" x="722" y="-775.6" font-family="Times,serif" font-size="8.00">0 of 5771393 (75.80%)</text>
</a>
</g>
</g>
<!-- N8&#45;&gt;N9 -->
<g id="edge16" class="edge"><title>N8&#45;&gt;N9</title>
<g id="a_edge16"><a xlink:title="fmt.(*pp).doPrintf &#45;&gt; fmt.(*pp).printArg (5771393)">
<path fill="none" stroke="#b20e00" stroke-width="4" d="M722,-863.897C722,-851.887 722,-836.617 722,-823.242"/>
<polygon fill="#b20e00" stroke="#b20e00" stroke-width="4" points="725.5,-823.02 722,-813.02 718.5,-823.02 725.5,-823.02"/>
</a>
</g>
<g id="a_edge16&#45;label"><a xlink:title="fmt.(*pp).doPrintf &#45;&gt; fmt.(*pp).printArg (5771393)">
<text text-anchor="middle" x="748" y="-834.8" font-family="Times,serif" font-size="14.00"> 5771393</text>
</a>
</g>
</g>
<!-- N9&#45;&gt;N2 -->
<g id="edge17" class="edge"><title>N9&#45;&gt;N2</title>
<g id="a_edge17"><a xlink:title="fmt.(*pp).printArg &#45;&gt; fmt.(*pp).printValue (5771393)">
<path fill="none" stroke="#b20e00" stroke-width="4" d="M722,-768.752C722,-757.196 722,-742.463 722,-728.587"/>
<polygon fill="#b20e00" stroke="#b20e00" stroke-width="4" points="725.5,-728.209 722,-718.209 718.5,-728.209 725.5,-728.209"/>
</a>
</g>
<g id="a_edge17&#45;label"><a xlink:title="fmt.(*pp).printArg &#45;&gt; fmt.(*pp).printValue (5771393)">
<text text-anchor="middle" x="748" y="-739.8" font-family="Times,serif" font-size="14.00"> 5771393</text>
</a>
</g>
</g>
<!-- N10 -->
<g id="node10" class="node"><title>N10</title>
<g id="a_node10"><a xlink:title="net/http.(*ServeMux).ServeHTTP (7605562)">
<polygon fill="#edd5d5" stroke="#b20000" points="565,-1518 475,-1518 475,-1474 565,-1474 565,-1518"/>
<text text-anchor="middle" x="520" y="-1507.6" font-family="Times,serif" font-size="8.00">net/http</text>
<text text-anchor="middle" x="520" y="-1498.6" font-family="Times,serif" font-size="8.00">(*ServeMux)</text>
<text text-anchor="middle" x="520" y="-1489.6" font-family="Times,serif" font-size="8.00">ServeHTTP</text>
<text text-anchor="middle" x="520" y="-1480.6" font-family="Times,serif" font-size="8.00">0 of 7605562 (99.88%)</text>
</a>
</g>
</g>
<!-- N11 -->
<g id="node11" class="node"><title>N11</title>
<g id="a_node11"><a xlink:title="net/http.HandlerFunc.ServeHTTP (7605562)">
<polygon fill="#edd5d5" stroke="#b20000" points="565,-1423 475,-1423 475,-1379 565,-1379 565,-1423"/>
<text text-anchor="middle" x="520" y="-1412.6" font-family="Times,serif" font-size="8.00">net/http</text>
<text text-anchor="middle" x="520" y="-1403.6" font-family="Times,serif" font-size="8.00">HandlerFunc</text>
<text text-anchor="middle" x="520" y="-1394.6" font-family="Times,serif" font-size="8.00">ServeHTTP</text>
<text text-anchor="middle" x="520" y="-1385.6" font-family="Times,serif" font-size="8.00">0 of 7605562 (99.88%)</text>
</a>
</g>
</g>
<!-- N10&#45;&gt;N11 -->
<g id="edge11" class="edge"><title>N10&#45;&gt;N11</title>
<g id="a_edge11"><a xlink:title="net/http.(*ServeMux).ServeHTTP &#45;&gt; net/http.HandlerFunc.ServeHTTP (7605562)">
<path fill="none" stroke="#b20000" stroke-width="5" d="M520,-1473.9C520,-1461.89 520,-1446.62 520,-1433.24"/>
<polygon fill="#b20000" stroke="#b20000" stroke-width="5" points="524.375,-1433.02 520,-1423.02 515.625,-1433.02 524.375,-1433.02"/>
</a>
</g>
<g id="a_edge11&#45;label"><a xlink:title="net/http.(*ServeMux).ServeHTTP &#45;&gt; net/http.HandlerFunc.ServeHTTP (7605562)">
<text text-anchor="middle" x="546" y="-1444.8" font-family="Times,serif" font-size="14.00"> 7605562</text>
</a>
</g>
</g>
<!-- N11&#45;&gt;N3 -->
<g id="edge14" class="edge"><title>N11&#45;&gt;N3</title>
<g id="a_edge14"><a xlink:title="net/http.HandlerFunc.ServeHTTP &#45;&gt; main.handle (7605536)">
<path fill="none" stroke="#b20000" stroke-width="5" d="M520,-1378.81C520,-1367.47 520,-1352.92 520,-1338.6"/>
<polygon fill="#b20000" stroke="#b20000" stroke-width="5" points="524.375,-1338.27 520,-1328.27 515.625,-1338.27 524.375,-1338.27"/>
</a>
</g>
<g id="a_edge14&#45;label"><a xlink:title="net/http.HandlerFunc.ServeHTTP &#45;&gt; main.handle (7605536)">
<text text-anchor="middle" x="546" y="-1349.8" font-family="Times,serif" font-size="14.00"> 7605536</text>
</a>
</g>
</g>
<!-- N12&#45;&gt;N10 -->
<g id="edge13" class="edge"><title>N12&#45;&gt;N10</title>
<g id="a_edge13"><a xlink:title="net/http.serverHandler.ServeHTTP &#45;&gt; net/http.(*ServeMux).ServeHTTP (7605562)">
<path fill="none" stroke="#b20000" stroke-width="5" d="M520,-1568.9C520,-1556.89 520,-1541.62 520,-1528.24"/>
<polygon fill="#b20000" stroke="#b20000" stroke-width="5" points="524.375,-1528.02 520,-1518.02 515.625,-1528.02 524.375,-1528.02"/>
</a>
</g>
<g id="a_edge13&#45;label"><a xlink:title="net/http.serverHandler.ServeHTTP &#45;&gt; net/http.(*ServeMux).ServeHTTP (7605562)">
<text text-anchor="middle" x="546" y="-1539.8" font-family="Times,serif" font-size="14.00"> 7605562</text>
</a>
</g>
</g>
<!-- N13&#45;&gt;N5 -->
<g id="edge24" class="edge"><title>N13&#45;&gt;N5</title>
<g id="a_edge24"><a xlink:title="reflect.(*rtype).Field &#45;&gt; reflect.(*structType).Field (2785322)">
<path fill="none" stroke="#b22e00" stroke-width="2" d="M850.324,-477.953C845.215,-465.558 838.448,-449.143 831.706,-432.788"/>
<polygon fill="#b22e00" stroke="#b22e00" stroke-width="2" points="834.799,-431.107 827.752,-423.195 828.328,-433.775 834.799,-431.107"/>
</a>
</g>
<g id="a_edge24&#45;label"><a xlink:title="reflect.(*rtype).Field &#45;&gt; reflect.(*structType).Field (2785322)">
<text text-anchor="middle" x="866" y="-444.8" font-family="Times,serif" font-size="14.00"> 2785322</text>
</a>
</g>
</g>
<!-- N16 -->
<g id="node16" class="node"><title>N16</title>
<g id="a_node16"><a xlink:title="reflect.valueInterface (2867284)">
<polygon fill="#eddbd5" stroke="#b22d00" points="1012,-385 922,-385 922,-349 1012,-349 1012,-385"/>
<text text-anchor="middle" x="967" y="-374.1" font-family="Times,serif" font-size="8.00">reflect</text>
<text text-anchor="middle" x="967" y="-365.1" font-family="Times,serif" font-size="8.00">valueInterface</text>
<text text-anchor="middle" x="967" y="-356.1" font-family="Times,serif" font-size="8.00">0 of 2867284 (37.66%)</text>
</a>
</g>
</g>
<!-- N14&#45;&gt;N16 -->
<g id="edge20" class="edge"><title>N14&#45;&gt;N16</title>
<g id="a_edge20"><a xlink:title="reflect.Value.Interface &#45;&gt; reflect.valueInterface (2867284)">
<path fill="none" stroke="#b22d00" stroke-width="2" d="M967,-477.953C967,-455.524 967,-419.928 967,-395.344"/>
<polygon fill="#b22d00" stroke="#b22d00" stroke-width="2" points="970.5,-395.231 967,-385.231 963.5,-395.231 970.5,-395.231"/>
</a>
</g>
<g id="a_edge20&#45;label"><a xlink:title="reflect.Value.Interface &#45;&gt; reflect.valueInterface (2867284)">
<text text-anchor="middle" x="993" y="-444.8" font-family="Times,serif" font-size="14.00"> 2867284</text>
</a>
</g>
</g>
<!-- N15 -->
<g id="node15" class="node"><title>N15</title>
<g id="a_node15"><a xlink:title="reflect.packEface (2867284)">
<polygon fill="#eddbd5" stroke="#b22d00" points="1012,-260 922,-260 922,-224 1012,-224 1012,-260"/>
<text text-anchor="middle" x="967" y="-249.1" font-family="Times,serif" font-size="8.00">reflect</text>
<text text-anchor="middle" x="967" y="-240.1" font-family="Times,serif" font-size="8.00">packEface</text>
<text text-anchor="middle" x="967" y="-231.1" font-family="Times,serif" font-size="8.00">0 of 2867284 (37.66%)</text>
</a>
</g>
</g>
<!-- N15&#45;&gt;N4 -->
<g id="edge21" class="edge"><title>N15&#45;&gt;N4</title>
<g id="a_edge21"><a xlink:title="reflect.packEface &#45;&gt; reflect.unsafe_New (2867284)">
<path fill="none" stroke="#b22d00" stroke-width="2" d="M967,-223.812C967,-212.815 967,-197.909 967,-183.262"/>
<polygon fill="#b22d00" stroke="#b22d00" stroke-width="2" points="970.5,-183.214 967,-173.214 963.5,-183.214 970.5,-183.214"/>
</a>
</g>
<g id="a_edge21&#45;label"><a xlink:title="reflect.packEface &#45;&gt; reflect.unsafe_New (2867284)">
<text text-anchor="middle" x="993" y="-194.8" font-family="Times,serif" font-size="14.00"> 2867284</text>
</a>
</g>
</g>
<!-- N16&#45;&gt;N15 -->
<g id="edge22" class="edge"><title>N16&#45;&gt;N15</title>
<g id="a_edge22"><a xlink:title="reflect.valueInterface &#45;&gt; reflect.packEface (2867284)">
<path fill="none" stroke="#b22d00" stroke-width="2" d="M967,-348.897C967,-328.633 967,-294.6 967,-270.593"/>
<polygon fill="#b22d00" stroke="#b22d00" stroke-width="2" points="970.5,-270.354 967,-260.354 963.5,-270.354 970.5,-270.354"/>
</a>
</g>
<g id="a_edge22&#45;label"><a xlink:title="reflect.valueInterface &#45;&gt; reflect.packEface (2867284)">
<text text-anchor="middle" x="993" y="-281.8" font-family="Times,serif" font-size="14.00"> 2867284</text>
</a>
</g>
</g>
</g>
</g></svg>
